<svg width="211" height="55" viewBox="0 0 211 55" fill="none" xmlns="http://www.w3.org/2000/svg">
<path d="M59.1826 37V15.5254H75.1055V19.1582H63.5186V23.9189H74.2998V27.5371H63.5186V33.3818H75.5156V37H59.1826ZM79.1338 37V15.5254H85.623L89.5195 30.1738L93.3721 15.5254H99.876V37H95.8477V20.0957L91.585 37H87.4102L83.1621 20.0957V37H79.1338ZM107.229 26.1895L103.494 25.5156C103.914 24.0117 104.637 22.8984 105.662 22.1758C106.688 21.4531 108.211 21.0918 110.232 21.0918C112.068 21.0918 113.436 21.3115 114.334 21.751C115.232 22.1807 115.862 22.7324 116.224 23.4062C116.595 24.0703 116.78 25.2959 116.78 27.083L116.736 31.8877C116.736 33.2549 116.8 34.2656 116.927 34.9199C117.063 35.5645 117.312 36.2578 117.674 37H113.602C113.494 36.7266 113.362 36.3213 113.206 35.7842C113.138 35.54 113.089 35.3789 113.06 35.3008C112.356 35.9844 111.604 36.4971 110.804 36.8389C110.003 37.1807 109.148 37.3516 108.24 37.3516C106.639 37.3516 105.374 36.917 104.446 36.0479C103.528 35.1787 103.069 34.0801 103.069 32.752C103.069 31.873 103.279 31.0918 103.699 30.4082C104.119 29.7148 104.705 29.1875 105.457 28.8262C106.219 28.4551 107.312 28.1328 108.738 27.8594C110.662 27.498 111.995 27.1611 112.737 26.8486V26.4385C112.737 25.6475 112.542 25.0859 112.151 24.7539C111.761 24.4121 111.023 24.2412 109.939 24.2412C109.207 24.2412 108.636 24.3877 108.226 24.6807C107.815 24.9639 107.483 25.4668 107.229 26.1895ZM112.737 29.5293C112.21 29.7051 111.375 29.915 110.232 30.1592C109.09 30.4033 108.343 30.6426 107.991 30.877C107.454 31.2578 107.186 31.7412 107.186 32.3271C107.186 32.9033 107.4 33.4014 107.83 33.8213C108.26 34.2412 108.807 34.4512 109.471 34.4512C110.213 34.4512 110.921 34.207 111.595 33.7188C112.093 33.3477 112.42 32.8936 112.576 32.3564C112.684 32.0049 112.737 31.3359 112.737 30.3496V29.5293ZM120.853 19.334V15.5254H124.969V19.334H120.853ZM120.853 37V21.4434H124.969V37H120.853ZM129.202 37V15.5254H133.318V37H129.202ZM156.946 37H152.229L150.354 32.1221H141.771L139.998 37H135.398L143.763 15.5254H148.348L156.946 37ZM148.963 28.5039L146.004 20.5352L143.104 28.5039H148.963ZM159.114 21.4434H162.952V23.7285C163.45 22.9473 164.124 22.3125 164.974 21.8242C165.823 21.3359 166.766 21.0918 167.801 21.0918C169.607 21.0918 171.141 21.7998 172.4 23.2158C173.66 24.6318 174.29 26.6045 174.29 29.1338C174.29 31.7314 173.655 33.7529 172.386 35.1982C171.116 36.6338 169.578 37.3516 167.771 37.3516C166.912 37.3516 166.131 37.1807 165.428 36.8389C164.734 36.4971 164.002 35.9111 163.23 35.0811V42.918H159.114V21.4434ZM163.187 28.958C163.187 30.7061 163.533 32 164.227 32.8398C164.92 33.6699 165.765 34.085 166.761 34.085C167.718 34.085 168.514 33.7041 169.148 32.9424C169.783 32.1709 170.101 30.9111 170.101 29.1631C170.101 27.5322 169.773 26.3213 169.119 25.5303C168.465 24.7393 167.654 24.3438 166.688 24.3438C165.682 24.3438 164.847 24.7344 164.183 25.5156C163.519 26.2871 163.187 27.4346 163.187 28.958ZM177.454 21.4434H181.292V23.7285C181.79 22.9473 182.464 22.3125 183.313 21.8242C184.163 21.3359 185.105 21.0918 186.141 21.0918C187.947 21.0918 189.48 21.7998 190.74 23.2158C192 24.6318 192.63 26.6045 192.63 29.1338C192.63 31.7314 191.995 33.7529 190.726 35.1982C189.456 36.6338 187.918 37.3516 186.111 37.3516C185.252 37.3516 184.471 37.1807 183.768 36.8389C183.074 36.4971 182.342 35.9111 181.57 35.0811V42.918H177.454V21.4434ZM181.526 28.958C181.526 30.7061 181.873 32 182.566 32.8398C183.26 33.6699 184.104 34.085 185.101 34.085C186.058 34.085 186.854 33.7041 187.488 32.9424C188.123 32.1709 188.44 30.9111 188.44 29.1631C188.44 27.5322 188.113 26.3213 187.459 25.5303C186.805 24.7393 185.994 24.3438 185.027 24.3438C184.021 24.3438 183.187 24.7344 182.522 25.5156C181.858 26.2871 181.526 27.4346 181.526 28.958ZM194.461 32.5615L198.592 31.9316C198.768 32.7324 199.124 33.3428 199.661 33.7627C200.198 34.1729 200.95 34.3779 201.917 34.3779C202.981 34.3779 203.782 34.1826 204.319 33.792C204.681 33.5186 204.861 33.1523 204.861 32.6934C204.861 32.3809 204.764 32.1221 204.568 31.917C204.363 31.7217 203.904 31.541 203.191 31.375C199.871 30.6426 197.767 29.9736 196.878 29.3682C195.647 28.5283 195.032 27.3613 195.032 25.8672C195.032 24.5195 195.564 23.3867 196.629 22.4688C197.693 21.5508 199.344 21.0918 201.58 21.0918C203.709 21.0918 205.291 21.4385 206.326 22.1318C207.361 22.8252 208.074 23.8506 208.465 25.208L204.583 25.9258C204.417 25.3203 204.1 24.8564 203.631 24.5342C203.172 24.2119 202.513 24.0508 201.653 24.0508C200.569 24.0508 199.793 24.2021 199.324 24.5049C199.012 24.7197 198.855 24.998 198.855 25.3398C198.855 25.6328 198.992 25.8818 199.266 26.0869C199.637 26.3604 200.916 26.7461 203.104 27.2441C205.301 27.7422 206.834 28.3525 207.703 29.0752C208.562 29.8076 208.992 30.8281 208.992 32.1367C208.992 33.5625 208.396 34.7881 207.205 35.8135C206.014 36.8389 204.251 37.3516 201.917 37.3516C199.798 37.3516 198.118 36.9219 196.878 36.0625C195.647 35.2031 194.842 34.0361 194.461 32.5615Z" fill="white"/>
<path fill-rule="evenodd" clip-rule="evenodd" d="M2.18262 16.745C0.77745 20.0486 0 23.6835 0 27.5C0 42.6878 12.3122 55 27.5 55H29.5C44.6878 55 57 42.6878 57 27.5C57 12.3122 44.6878 0 29.5 0H27.5C16.6044 0 7.18871 6.33647 2.73703 15.5254H18.1055V19.1582H6.51855V23.9189H17.2998V27.5371H6.51855V33.3818H18.5156V37H2.18262V16.745ZM32.6074 37H36.4307V15.5254H32.3145V23.2598C31.0449 21.8145 29.541 21.0918 27.8027 21.0918C25.9082 21.0918 24.3408 21.7803 23.1006 23.1572C21.8604 24.5244 21.2402 26.5264 21.2402 29.1631C21.2402 31.7412 21.875 33.7529 23.1445 35.1982C24.4238 36.6338 25.957 37.3516 27.7441 37.3516C28.623 37.3516 29.4922 37.1367 30.3516 36.707C31.2207 36.2676 31.9727 35.6035 32.6074 34.7148V37ZM26.1328 32.4883C25.6738 31.7461 25.4443 30.5449 25.4443 28.8848C25.4443 27.3418 25.7715 26.1846 26.4258 25.4131C27.0898 24.6318 27.9102 24.2412 28.8867 24.2412C29.8926 24.2412 30.7178 24.6367 31.3623 25.4277C32.0068 26.209 32.3291 27.4932 32.3291 29.2803C32.3291 30.8818 31.9971 32.0879 31.333 32.8984C30.6689 33.6992 29.8633 34.0996 28.916 34.0996C27.7246 34.0996 26.7969 33.5625 26.1328 32.4883ZM50.7422 34.6709V37H54.5654V21.4434H50.4492V28.0059C50.4492 30.2324 50.3467 31.6338 50.1416 32.21C49.9365 32.7764 49.5557 33.2549 48.999 33.6455C48.4424 34.0264 47.8125 34.2168 47.1094 34.2168C46.4941 34.2168 45.9863 34.0752 45.5859 33.792C45.1855 33.499 44.9072 33.1084 44.751 32.6201C44.6045 32.1221 44.5312 30.7793 44.5312 28.5918V21.4434H40.415V31.2871C40.415 32.752 40.6006 33.8994 40.9717 34.7295C41.3428 35.5596 41.9434 36.2041 42.7734 36.6631C43.6035 37.1221 44.541 37.3516 45.5859 37.3516C46.6113 37.3516 47.583 37.1123 48.501 36.6338C49.4287 36.1553 50.1758 35.501 50.7422 34.6709Z" fill="#FFC83D"/>
</svg>
